<?xml version="1.0" encoding="UTF-8"?>
<svg id="uuid-71d3023a-fb75-49bb-a7e7-95c30222b7f9" xmlns="http://www.w3.org/2000/svg" viewBox="0 0 260 50.69">
  <defs>
    <style>
      .cls-1 {
        fill: #927d57;
      }
    </style>
  </defs>
  <path class="cls-1" d="M1.33.46h6.61v30.29H1.33V.46Z"/>
  <path class="cls-1" d="M18.78,22.55l6.32-.84c.92,2.72,3.22,4.18,6.49,4.18s5.23-1.34,5.19-3.6c-.08-5.94-16.9-2.05-16.9-13.43C19.87,3.56,24.39,0,30.87,0s11,2.8,12.18,8.2l-6.07.84c-.96-2.43-2.89-3.68-5.9-3.68s-4.77,1.3-4.77,3.39c0,6.44,17.11,1.84,17.11,13.35,0,5.48-4.64,9.08-11.8,9.08-6.69,0-11.55-3.1-12.84-8.62Z"/>
  <path class="cls-1" d="M53.26,15.65C53.26,4.85,60.04.13,67.65.13s14.35,4.73,14.35,15.52-6.82,15.56-14.44,15.56-14.31-4.56-14.31-15.56ZM75.39,15.65c0-6.11-3.1-9.62-7.78-9.62s-7.87,3.51-7.87,9.62,3.01,9.66,7.82,9.66,7.82-3.39,7.82-9.66Z"/>
  <path class="cls-1" d="M156.65,25.48h-12.97l-1.93,5.27h-6.94L146.82.46h6.7l12.05,30.29h-6.99l-1.92-5.27ZM154.9,20.63l-4.73-12.97-4.73,12.97h9.45Z"/>
  <path class="cls-1" d="M177.24,6.36h-7.4V.46h21.34v5.9h-7.32v24.39h-6.61V6.36Z"/>
  <path class="cls-1" d="M202.22.46h20.04v5.9h-13.43v6.53h12.68v5.15h-12.68v6.82h13.43v5.9h-20.04V.46Z"/>
  <path class="cls-1" d="M241.59,14.73L231.63.46h7.91l5.73,8.7,5.77-8.7h7.91l-9.96,14.23,11,16.07h-7.78l-6.94-10.54-6.95,10.54h-7.78l11.05-16.02Z"/>
  <g>
    <g>
      <path class="cls-1" d="M7.34,48.59H2.43l-.76,1.93H0l4.1-9.82h1.57l4.11,9.82h-1.67l-.77-1.93ZM6.84,47.33l-1.95-4.9-1.95,4.9h3.91Z"/>
      <path class="cls-1" d="M10.74,46.63c0-2.67,1.63-4.03,3.55-4.03,1.22,0,2.32.6,2.75,1.67v-4.04h1.52v10.27h-1.52v-1.47c-.43,1.04-1.53,1.65-2.74,1.65-1.93,0-3.57-1.37-3.57-4.06ZM17.09,46.63c0-1.7-.98-2.74-2.43-2.74s-2.4,1.03-2.4,2.74.98,2.75,2.43,2.75,2.4-1.04,2.4-2.75Z"/>
      <path class="cls-1" d="M20.23,42.75h1.66l2.5,6.11,2.5-6.11h1.68l-3.42,7.77h-1.52l-3.39-7.77Z"/>
      <path class="cls-1" d="M29.48,46.63c0-2.67,1.63-4.03,3.55-4.03,1.22,0,2.31.6,2.75,1.67v-1.52h1.52v7.75h-1.52v-1.47c-.43,1.04-1.53,1.65-2.74,1.65-1.93,0-3.57-1.37-3.57-4.06ZM35.83,46.63c0-1.7-.99-2.74-2.43-2.74s-2.4,1.03-2.4,2.74.98,2.75,2.43,2.75,2.4-1.04,2.4-2.75Z"/>
      <path class="cls-1" d="M39.83,42.75h1.52v1.41c.35-.96,1.23-1.55,2.54-1.55,2.14,0,3.13,1.23,3.13,3.69v4.21h-1.52v-4.08c0-1.7-.65-2.5-2.09-2.5s-2.06.96-2.06,2.67v3.91h-1.52v-7.76Z"/>
      <path class="cls-1" d="M49.04,46.63c0-2.35,1.6-4.03,3.84-4.03,1.95,0,3.12.89,3.61,2.66l-1.3.26c-.38-1.1-1.1-1.63-2.24-1.63-1.41,0-2.39,1.11-2.39,2.74s.98,2.73,2.39,2.73c1.06,0,1.87-.6,2.21-1.61l1.3.26c-.42,1.67-1.72,2.66-3.58,2.66-2.24,0-3.84-1.68-3.84-4.03Z"/>
      <path class="cls-1" d="M57.97,46.63c0-2.39,1.6-4.03,3.92-4.03,2.47,0,3.96,1.82,3.77,4.42h-6.17c.05,1.51.99,2.36,2.5,2.36,1.09,0,1.79-.37,2.17-1.11l1.4.22c-.62,1.44-1.85,2.17-3.6,2.17-2.42,0-3.99-1.6-3.99-4.03ZM64.24,45.83c-.11-1.23-.95-2.02-2.32-2.02s-2.21.68-2.39,2.02h4.71Z"/>
      <path class="cls-1" d="M67.59,46.63c0-2.67,1.63-4.03,3.55-4.03,1.22,0,2.32.6,2.75,1.67v-4.04h1.52v10.27h-1.52v-1.47c-.43,1.04-1.53,1.65-2.74,1.65-1.93,0-3.57-1.37-3.57-4.06ZM73.94,46.63c0-1.7-.98-2.74-2.43-2.74s-2.4,1.03-2.4,2.74.98,2.75,2.43,2.75,2.4-1.04,2.4-2.75Z"/>
      <path class="cls-1" d="M95.39,46.63c0-2.67,1.63-4.03,3.55-4.03,1.22,0,2.31.6,2.75,1.67v-1.52h1.52v7.75h-1.52v-1.47c-.43,1.04-1.53,1.65-2.74,1.65-1.93,0-3.57-1.37-3.57-4.06ZM101.74,46.63c0-1.7-.99-2.74-2.43-2.74s-2.4,1.03-2.4,2.74.98,2.75,2.43,2.75,2.4-1.04,2.4-2.75Z"/>
      <path class="cls-1" d="M106.19,47.42v-3.49h-1.13v-1.18h1.13v-1.42l1.53-.33v1.75h2.29v1.18h-2.29v3.31c0,1.6.42,2.16,1.6,2.16.15,0,.33-.03.62-.07l.2,1.18c-.3.07-.73.11-1.06.11-1.99,0-2.9-.83-2.9-3.2Z"/>
      <path class="cls-1" d="M111.34,46.63c0-2.39,1.6-4.03,3.92-4.03,2.47,0,3.96,1.82,3.77,4.42h-6.17c.05,1.51.99,2.36,2.5,2.36,1.09,0,1.79-.37,2.17-1.11l1.4.22c-.62,1.44-1.85,2.17-3.6,2.17-2.42,0-3.99-1.6-3.99-4.03ZM117.61,45.83c-.11-1.23-.95-2.02-2.32-2.02s-2.21.68-2.39,2.02h4.71Z"/>
      <path class="cls-1" d="M121.23,42.75h1.52v1.3c.3-.83,1.11-1.59,2.73-1.36l-.16,1.47c-1.74-.33-2.56.61-2.56,2.51v3.84h-1.52v-7.76Z"/>
      <path class="cls-1" d="M127.02,40.81c0-.52.38-.81.89-.81s.91.3.91.81-.42.81-.91.81c-.52,0-.89-.31-.89-.81ZM127.15,42.75h1.51v7.76h-1.51v-7.76Z"/>
      <path class="cls-1" d="M130.87,46.63c0-2.67,1.63-4.03,3.55-4.03,1.22,0,2.31.6,2.75,1.67v-1.52h1.52v7.75h-1.52v-1.47c-.43,1.04-1.53,1.65-2.74,1.65-1.93,0-3.57-1.37-3.57-4.06ZM137.22,46.63c0-1.7-.99-2.74-2.43-2.74s-2.4,1.03-2.4,2.74.98,2.75,2.43,2.75,2.4-1.04,2.4-2.75Z"/>
      <path class="cls-1" d="M141.21,40.23h1.53v10.29h-1.53v-10.29Z"/>
      <path class="cls-1" d="M144.69,48.64l1.38-.38c.38.71,1.18,1.08,2.27,1.08,1.21,0,1.86-.38,1.86-1.08,0-1.78-5.17-.16-5.17-3.42,0-1.33,1.41-2.22,3.2-2.22,1.41,0,2.84.71,3.3,1.78l-1.36.37c-.33-.57-1.09-.89-1.91-.89-1.08,0-1.74.37-1.74,1,0,1.76,5.21.14,5.21,3.35,0,1.49-1.32,2.43-3.39,2.43-1.75,0-3.17-.79-3.65-2.01Z"/>
      <path class="cls-1" d="M171.12,46.63c0-2.67,1.63-4.03,3.55-4.03,1.22,0,2.31.6,2.75,1.67v-1.52h1.52v7.75h-1.52v-1.47c-.43,1.04-1.53,1.65-2.74,1.65-1.93,0-3.57-1.37-3.57-4.06ZM177.47,46.63c0-1.7-.99-2.74-2.43-2.74s-2.4,1.03-2.4,2.74.98,2.75,2.43,2.75,2.4-1.04,2.4-2.75Z"/>
      <path class="cls-1" d="M181.47,42.75h1.52v1.41c.35-.96,1.23-1.55,2.54-1.55,2.14,0,3.13,1.23,3.13,3.69v4.21h-1.52v-4.08c0-1.7-.65-2.5-2.09-2.5s-2.06.96-2.06,2.67v3.91h-1.52v-7.76Z"/>
      <path class="cls-1" d="M190.78,46.97v-4.22h1.52v4.1c0,1.68.61,2.48,2.08,2.48s2.06-.96,2.06-2.67v-3.91h1.52v7.76h-1.52v-1.41c-.34.96-1.23,1.56-2.52,1.56-2.14,0-3.13-1.25-3.13-3.69Z"/>
      <path class="cls-1" d="M200.93,43.93h-1.07v-1.18h1.07v-.31c0-1.67.91-2.51,2.7-2.51.47,0,1.02.05,1.37.12l-.22,1.15c-.29-.05-.57-.07-.86-.07-.99,0-1.47.43-1.47,1.34v.27h2.18v1.18h-2.18v6.58h-1.53v-6.58Z"/>
      <path class="cls-1" d="M205.54,46.63c0-2.67,1.63-4.03,3.55-4.03,1.22,0,2.31.6,2.75,1.67v-1.52h1.52v7.75h-1.52v-1.47c-.43,1.04-1.53,1.65-2.74,1.65-1.93,0-3.57-1.37-3.57-4.06ZM211.89,46.63c0-1.7-.99-2.74-2.43-2.74s-2.4,1.03-2.4,2.74.98,2.75,2.43,2.75,2.4-1.04,2.4-2.75Z"/>
      <path class="cls-1" d="M215.61,46.63c0-2.35,1.6-4.03,3.84-4.03,1.95,0,3.12.89,3.61,2.66l-1.3.26c-.38-1.1-1.1-1.63-2.24-1.63-1.41,0-2.39,1.11-2.39,2.74s.98,2.73,2.39,2.73c1.06,0,1.87-.6,2.21-1.61l1.3.26c-.42,1.67-1.72,2.66-3.58,2.66-2.24,0-3.84-1.68-3.84-4.03Z"/>
      <path class="cls-1" d="M225.49,47.42v-3.49h-1.13v-1.18h1.13v-1.42l1.53-.33v1.75h2.29v1.18h-2.29v3.31c0,1.6.42,2.16,1.6,2.16.15,0,.33-.03.62-.07l.2,1.18c-.3.07-.73.11-1.06.11-1.99,0-2.9-.83-2.9-3.2Z"/>
      <path class="cls-1" d="M231.07,46.97v-4.22h1.52v4.1c0,1.68.61,2.48,2.08,2.48s2.06-.96,2.06-2.67v-3.91h1.52v7.76h-1.52v-1.41c-.34.96-1.23,1.56-2.52,1.56-2.14,0-3.13-1.25-3.13-3.69Z"/>
      <path class="cls-1" d="M240.77,42.75h1.52v1.3c.3-.83,1.11-1.59,2.73-1.36l-.16,1.47c-1.74-.33-2.56.61-2.56,2.51v3.84h-1.52v-7.76Z"/>
      <path class="cls-1" d="M245.87,46.63c0-2.39,1.6-4.03,3.92-4.03,2.47,0,3.96,1.82,3.77,4.42h-6.17c.05,1.51.99,2.36,2.5,2.36,1.08,0,1.79-.37,2.17-1.11l1.4.22c-.62,1.44-1.85,2.17-3.6,2.17-2.41,0-3.99-1.6-3.99-4.03ZM252.14,45.83c-.11-1.23-.95-2.02-2.32-2.02s-2.21.68-2.39,2.02h4.71Z"/>
      <path class="cls-1" d="M255.75,42.75h1.52v1.3c.3-.83,1.11-1.59,2.73-1.36l-.16,1.47c-1.74-.33-2.56.61-2.56,2.51v3.84h-1.52v-7.76Z"/>
    </g>
    <polygon class="cls-1" points="92.72 40.69 92.29 40.69 92.04 40.69 88.55 46.96 85.05 40.69 84.81 40.69 84.37 40.69 83.27 40.69 83.27 50.51 84.81 50.51 84.81 43.59 87.76 48.62 89.33 48.62 92.29 43.59 92.29 50.51 93.83 50.51 93.83 40.69 92.72 40.69"/>
    <polygon class="cls-1" points="168.45 40.69 168.02 40.69 167.77 40.69 164.28 46.96 160.77 40.69 160.53 40.69 160.1 40.69 159 40.69 159 50.51 160.53 50.51 160.53 43.59 163.49 48.62 165.06 48.62 168.02 43.59 168.02 50.51 169.55 50.51 169.55 40.69 168.45 40.69"/>
  </g>
  <polygon class="cls-1" points="119.3 .46 119.3 .46 117.59 .46 108.99 17.79 100.39 .46 98.69 .46 98.69 .46 92.08 .46 92.08 30.75 98.69 30.75 98.69 11.54 105.81 25.48 112.22 25.48 119.3 11.57 119.3 30.75 125.91 30.75 125.91 .46 119.3 .46"/>
</svg>