<?xml version="1.0" standalone="no"?>
<!DOCTYPE svg PUBLIC "-//W3C//DTD SVG 20010904//EN"
 "http://www.w3.org/TR/2001/REC-SVG-20010904/DTD/svg10.dtd">
<svg version="1.0" xmlns="http://www.w3.org/2000/svg"
 width="230.000000pt" height="230.000000pt" viewBox="0 0 230.000000 230.000000"
 preserveAspectRatio="xMidYMid meet">
<metadata>
Created by potrace 1.16, written by Peter Selinger 2001-2019
</metadata>
<g transform="translate(0.000000,230.000000) scale(0.100000,-0.100000)"
fill="#000000" stroke="none">
<path d="M100 1850 l0 -350 350 0 350 0 0 350 0 350 -350 0 -350 0 0 -350z
m600 0 l0 -250 -250 0 -250 0 0 250 0 250 250 0 250 0 0 -250z"/>
<path d="M300 1850 l0 -150 150 0 150 0 0 150 0 150 -150 0 -150 0 0 -150z"/>
<path d="M1100 2150 l0 -50 50 0 50 0 0 -150 0 -150 -50 0 -50 0 0 100 0 100
-50 0 -50 0 0 50 0 50 -50 0 -50 0 0 -50 0 -50 50 0 50 0 0 -50 0 -50 -50 0
-50 0 0 -50 0 -50 100 0 100 0 0 -50 0 -50 -100 0 -100 0 0 -100 0 -100 50 0
50 0 0 50 0 50 50 0 50 0 0 -100 0 -100 -200 0 -200 0 0 -50 0 -50 -50 0 -50
0 0 50 0 50 -250 0 -250 0 0 -100 0 -100 100 0 100 0 0 50 0 50 50 0 50 0 0
-50 0 -50 50 0 50 0 0 50 0 50 50 0 50 0 0 -50 0 -50 50 0 50 0 0 -50 0 -50
-50 0 -50 0 0 -50 0 -50 -50 0 -50 0 0 50 0 50 -100 0 -100 0 0 -100 0 -100
50 0 50 0 0 50 0 50 50 0 50 0 0 -50 0 -50 50 0 50 0 0 50 0 50 50 0 50 0 0
-50 0 -50 50 0 50 0 0 50 0 50 50 0 50 0 0 -150 0 -150 100 0 100 0 0 -50 0
-50 50 0 50 0 0 -50 0 -50 50 0 50 0 0 50 0 50 100 0 100 0 0 -50 0 -50 -50 0
-50 0 0 -50 0 -50 -150 0 -150 0 0 50 0 50 -50 0 -50 0 0 50 0 50 -50 0 -50 0
0 -250 0 -250 100 0 100 0 0 100 0 100 150 0 150 0 0 -50 0 -50 -50 0 -50 0 0
-50 0 -50 200 0 200 0 0 50 0 50 -100 0 -100 0 0 50 0 50 50 0 50 0 0 50 0 50
150 0 150 0 0 50 0 50 -50 0 -50 0 0 50 0 50 100 0 100 0 0 50 0 50 50 0 50 0
0 100 0 100 -50 0 -50 0 0 -50 0 -50 -100 0 -100 0 0 50 0 50 -100 0 -100 0 0
50 0 50 50 0 50 0 0 50 0 50 -50 0 -50 0 0 50 0 50 -200 0 -200 0 0 50 0 50
-50 0 -50 0 0 50 0 50 100 0 100 0 0 -50 0 -50 100 0 100 0 0 50 0 50 -100 0
-100 0 0 50 0 50 50 0 50 0 0 100 0 100 -100 0 -100 0 0 50 0 50 50 0 50 0 0
100 0 100 50 0 50 0 0 50 0 50 -100 0 -100 0 0 50 0 50 -50 0 -50 0 0 -50z
m200 -600 l0 -50 -50 0 -50 0 0 50 0 50 50 0 50 0 0 -50z m-500 -300 l0 -50
-50 0 -50 0 0 50 0 50 50 0 50 0 0 -50z m300 0 l0 -50 -50 0 -50 0 0 50 0 50
50 0 50 0 0 -50z m-300 -200 l0 -50 -50 0 -50 0 0 50 0 50 50 0 50 0 0 -50z
m600 -100 l0 -150 50 0 50 0 0 50 0 50 50 0 50 0 0 -50 0 -50 100 0 100 0 0
-50 0 -50 -100 0 -100 0 0 -50 0 -50 50 0 50 0 0 -50 0 -50 -50 0 -50 0 0 50
0 50 -50 0 -50 0 0 50 0 50 -50 0 -50 0 0 50 0 50 -50 0 -50 0 0 -50 0 -50
-50 0 -50 0 0 50 0 50 -100 0 -100 0 0 50 0 50 50 0 50 0 0 50 0 50 50 0 50 0
0 50 0 50 100 0 100 0 0 -150z m200 100 l0 -50 -50 0 -50 0 0 50 0 50 50 0 50
0 0 -50z"/>
<path d="M1200 950 l0 -50 50 0 50 0 0 50 0 50 -50 0 -50 0 0 -50z"/>
<path d="M1500 1850 l0 -350 350 0 350 0 0 350 0 350 -350 0 -350 0 0 -350z
m600 0 l0 -250 -250 0 -250 0 0 250 0 250 250 0 250 0 0 -250z"/>
<path d="M1700 1850 l0 -150 150 0 150 0 0 150 0 150 -150 0 -150 0 0 -150z"/>
<path d="M1600 1350 l0 -50 50 0 50 0 0 50 0 50 -50 0 -50 0 0 -50z"/>
<path d="M1800 1350 l0 -50 50 0 50 0 0 -50 0 -50 -50 0 -50 0 0 -100 0 -100
100 0 100 0 0 50 0 50 50 0 50 0 0 -50 0 -50 50 0 50 0 0 50 0 50 -50 0 -50 0
0 50 0 50 50 0 50 0 0 50 0 50 -50 0 -50 0 0 50 0 50 -50 0 -50 0 0 -50 0 -50
-50 0 -50 0 0 50 0 50 -50 0 -50 0 0 -50z m300 -100 l0 -50 -50 0 -50 0 0 50
0 50 50 0 50 0 0 -50z"/>
<path d="M100 1000 l0 -100 50 0 50 0 0 100 0 100 -50 0 -50 0 0 -100z"/>
<path d="M100 450 l0 -350 350 0 350 0 0 350 0 350 -350 0 -350 0 0 -350z
m600 0 l0 -250 -250 0 -250 0 0 250 0 250 250 0 250 0 0 -250z"/>
<path d="M300 450 l0 -150 150 0 150 0 0 150 0 150 -150 0 -150 0 0 -150z"/>
<path d="M2000 450 l0 -50 50 0 50 0 0 50 0 50 -50 0 -50 0 0 -50z"/>
<path d="M1800 250 l0 -50 50 0 50 0 0 -50 0 -50 100 0 100 0 0 50 0 50 -50 0
-50 0 0 50 0 50 -100 0 -100 0 0 -50z"/>
</g>
</svg>
