<?xml version="1.0" encoding="UTF-8" standalone="no"?>
<svg
   xmlns:dc="http://purl.org/dc/elements/1.1/"
   xmlns:cc="http://creativecommons.org/ns#"
   xmlns:rdf="http://www.w3.org/1999/02/22-rdf-syntax-ns#"
   xmlns:svg="http://www.w3.org/2000/svg"
   xmlns="http://www.w3.org/2000/svg"
   width="200"
   height="200"
   viewBox="0 0 200 200"
   version="1.1"
   id="svg1456">
  <metadata
     id="metadata1460">
    <rdf:RDF>
      <cc:Work
         rdf:about="">
        <dc:format>image/svg+xml</dc:format>
        <dc:type
           rdf:resource="http://purl.org/dc/dcmitype/StillImage" />
        <dc:title></dc:title>
      </cc:Work>
    </rdf:RDF>
  </metadata>
  <defs
     id="defs836">
    <rect
       id="p"
       width="8"
       height="8"
       x="0"
       y="0" />
  </defs>
  <g
     fill="#000000"
     id="g1452">
    <path
       id="use838"
       d="m 0,0 v 56 c 19.494146,0 36.937569,0 56,0 V 0 Z m 64,0 v 8 h 8 V 0 Z m 8,8 v 8 h -8 v 8 h 8 v 8 h 8 v 8 h 8 v -8 c 5.333333,0 10.666667,0 16,0 v 8 c 5.33333,0 10.66667,0 16,0 0,-5.333333 0,-10.666667 0,-16 h -8 c 0,-5.333333 0,-10.666667 0,-16 h 8 V 0 H 96 v 8 h 8 v 8 H 80 V 8 Z m 8,0 h 8 V 0 h -8 z m 24,32 h -8 c 0,5.333333 0,10.666667 0,16 h 8 c 0,-5.333333 0,-10.666667 0,-16 z m -8,16 h -8 v -8 h -8 c 0,5.333333 0,10.666667 0,16 h 8 c 0,5.333333 0,10.666667 0,16 h 8 v 8 h -8 v -8 h -8 c 0,8 0,16 0,24 5.333333,0 10.666667,0 16,0 v -8 h 8 v -8 h 8 v -8 h -8 v -8 h -8 c 0,-5.333333 0,-10.666667 0,-16 z m 16,24 h 8 c 0,5.333333 0,10.666667 0,16 h 8 v 8 h -8 c 0,5.33333 0,10.66667 0,16 h 8 v -8 h 8 c 0,-8 0,-16 0,-24 h -8 v -8 c 5.33333,0 10.66667,0 16,0 0,11.776985 0,20.74956 0,32 h -8 c 0,5.33333 0,10.66667 0,16 h -8 c 0,8 0,16 0,24 h -8 v -8 h -8 c 0,5.33333 0,10.66667 0,16 h 8 v 8 h 8 v 8 h -8 v 8 h -8 v 8 c 5.33333,0 10.66667,0 16,0 v 8 h 8 v -8 h 8 v -8 h -8 v -8 h 8 v -8 c 5.33333,0 10.66667,0 16,0 v 8 h -8 c 0,5.33333 0,10.66667 0,16 5.33333,0 10.66667,0 16,0 v -8 h 8 v -8 h -8 c 0,-16 0,-32 0,-48 h 8 v -8 h 8 v -8 h -8 -8 v 8 c -5.33333,0 -10.66667,0 -16,0 v -8 h 8 v -8 h -8 c 0,-8 0,-16 0,-24 h 8 v -8 -8 h -8 v 8 c -8,0 -16,0 -24,0 v -8 h -8 v 8 h -8 z m 8,-16 c 0,-5.333333 0,-10.666667 0,-16 h -8 c 0,5.333333 0,10.666667 0,16 z m 8,0 h 8 c 0,-8 0,-16 0,-24 h -8 c 0,8 0,16 0,24 z m 56,48 h 8 v 8 h 8 V 96 h -8 v 8 h -8 z m -8,64 h 8 v 8 c 5.33333,0 10.66667,0 16,0 v -8 h -8 c 0,-5.33333 0,-10.66667 0,-16 h -8 v 8 h -8 z m -8,16 v 8 h 8 v -8 z m -16,0 h -8 v 8 h 8 z m -32,-88 v -8 h -8 v 8 z m -8,0 h -8 v 8 h 8 z M 80,48 v -8 c -5.333333,0 -10.666667,0 -16,0 0,5.333333 0,10.666667 0,16 h 8 V 48 Z M 144,0 v 56 h 56 V 0 Z M 8,8 h 40 c 0,14.106822 0,26.62675 0,40 -14.106822,0 -26.62675,0 -40,0 z m 120,0 v 24 h 8 V 8 Z m 24,0 h 40 V 48 H 152 Z M 16,16 c 0,8 0,16 0,24 8,0 16,0 24,0 0,-8 0,-16 0,-24 -8,0 -16,0 -24,0 z m 144,0 v 24 h 24 V 16 Z M 0,64 c 0,5.333333 0,10.666667 0,16 H 8 C 8,74.666667 8,69.333333 8,64 Z m 16,0 c 0,8.712801 0,15.440427 0,24 H 8 v 8 c 10.666667,0 21.333333,0 32,0 v 8 c 5.333333,0 10.666667,0 16,0 v -8 h -8 v -8 h -8 v -8 h 8 v -8 c -5.333333,0 -10.666667,0 -16,0 0,5.333333 0,10.666667 0,16 h -8 c 0,-8.054707 0,-16.875713 0,-24 z m 32,8 h 8 v 8 h -8 v 8 h 8 8 v 8 8 h 8 c 0,-8 0,-16 0,-24 h -8 c 0,-5.333333 0,-10.666667 0,-16 -5.333333,0 -10.666667,0 -16,0 z m 16,32 h -8 v 8 h 8 z m -8,8 h -8 v 8 h 8 z m 0,8 v 8 h 8 c 0,8 0,16 0,24 h 8 c 0,-5.33333 0,-10.66667 0,-16 h 8 v -8 h -8 v -8 c -5.333333,0 -10.666667,0 -16,0 z m 24,8 h 8 v -8 h -8 z m 8,-8 h 8 v -8 h -8 z m 0,8 v 8 h 8 c 0,5.33333 0,10.66667 0,16 -8,0 -16,0 -24,0 0,8 0,16 0,24 h 8 c 0,8 0,16 0,24 h 8 c 0,-5.33333 0,-10.66667 0,-16 h 8 v -8 h -8 v -8 h -8 v -8 c 5.333333,0 10.666667,0 16,0 v 8 h 8 c 0,-13.33333 0,-26.66667 0,-40 -5.333333,0 -10.666667,0 -16,0 z m 16,40 v 8 h 8 v -8 z m -8,16 c 0,5.33333 0,10.66667 0,16 h 8 c 0,-5.33333 0,-10.66667 0,-16 z m -24,-8 h -8 v 8 h 8 z m 16,-40 h -8 v 8 h 8 z m -32,-8 h -8 -8 v 8 c 5.333333,0 10.666667,0 16,0 z m -16,0 c 0,-5.33333 0,-10.66667 0,-16 -8,0 -16,0 -24,0 v 8 h 8 v 8 h -8 v 8 c 5.333333,0 10.666667,0 16,0 v -8 z m -24,0 v -8 c -5.333333,0 -10.6666667,0 -16,0 v 8 c 5.3333333,0 10.666667,0 16,0 z M 8,96 H 0 c 0,5.33333 0,10.66667 0,16 H 8 C 8,106.66667 8,101.33333 8,96 Z M 176,64 v 8 h 8 v -8 z m 8,8 v 8 h 8 v 8 h 8 V 64 h -8 v 8 z m 0,8 h -8 v -8 h -8 c 0,8 0,16 0,24 h 8 v -8 h 8 z m 0,48 v 8 h 8 v -8 z m 8,8 v 8 8 h 8 v -16 z m -56,0 c 8,0 16,0 24,0 0,8 0,16 0,24 -8,0 -16,0 -24,0 0,-8 0,-16 0,-24 z M 0,144 v 56 c 18.666667,0 37.333333,0 56,0 0,-18.66667 0,-37.33333 0,-56 -18.666667,0 -37.333333,0 -56,0 z m 144,0 v 8 h 8 v -8 z M 8,152 c 13.333333,0 26.666667,0 40,0 0,13.33333 0,26.66667 0,40 -13.333333,0 -26.666667,0 -40,0 0,-13.33333 0,-26.66667 0,-40 z m 8,8 c 0,8 0,16 0,24 8,0 16,0 24,0 0,-8 0,-16 0,-24 -8,0 -16,0 -24,0 z m 48,32 v 8 h 8 v -8 z m 128,0 v 8 h 8 v -8 z" />
  </g>
  <g
     id="g1454" />
</svg>
