<svg xmlns="http://www.w3.org/2000/svg" width="284.331" height="66.222" viewBox="0 0 284.331 66.222">
  <g id="Group_343" data-name="Group 343" transform="translate(-121.849 -227.652)">
    <g id="Group_1" data-name="Group 1" transform="translate(121.848 233.025)">
      <path id="Path_1" data-name="Path 1" d="M153.481,282.351c5.77-3.818,8.234-17.476-1.619-17.237-7.507,0-14.578-.016-22.085-.015a4.357,4.357,0,0,0-.992.04,1.289,1.289,0,0,0-.524.447,1.78,1.78,0,0,0-.143.619q-3.09,16.192-6.179,32.385c-.173.909-.173.911.7.911,7.6,0,15.2-.016,22.8.011,7.7.448,12.513-10.335,8.746-16.344C153.965,282.889,153.723,282.631,153.481,282.351ZM133.07,278.41l1.191-6.437a.653.653,0,0,1,.644-.547h14.427a1.285,1.285,0,0,1,.782.268,1.3,1.3,0,0,1,.456,1.454l-1.427,4.241a2.606,2.606,0,0,1-2.335,1.768c-.047,0-.093.011-.14.011H133.714a.609.609,0,0,1-.08-.009.65.65,0,0,1-.565-.75Zm15.11,8.775c0,.012,0,.024,0,.035-.242,1.368-.671,2.736-.946,4.1a2.465,2.465,0,0,1-1.742,1.691,6.432,6.432,0,0,1-1.131.093c-4.468.006-8.764,0-13.23,0a2.6,2.6,0,0,1-.627-.04c-.242-.072-.209-.278-.093-.886q.57-2.992,1.142-5.985c.146-.766.167-.785.943-.786q3.505,0,7.008,0v0c2.279,0,4.556.016,6.84-.009a1.676,1.676,0,0,1,1.77,1.124A1.356,1.356,0,0,1,148.18,287.185Z" transform="translate(-121.848 -252.493)" fill="#4a3610"/>
      <path id="Path_2" data-name="Path 2" d="M226.134,265.125c-4.386,0-14.7,0-14.7,0-.317,0-1.136,0-1.491.009.12,0,.241-.008.361-.008h1.119a14.215,14.215,0,0,0-1.631.012h0a11.124,11.124,0,0,0-2.667.494c-.067.023-.133.052-.2.076.067-.025.133-.053.2-.076a9.018,9.018,0,0,0-3.647,2.2l0,0-.008.009a8.392,8.392,0,0,0-2.535,4.39c-.006.024-.013.049-.018.069s0,.02-.007.029c-.016.066-.024.108-.024.108,0-.025.011-.05.017-.074-.006.025-.012.049-.017.074-1.744,8.806-3.381,17.613-5.075,26.419-.095.492.006.661.5.654q3.051-.037,6.09,0c.532.008.69-.186.783-.69.533-2.9,1.094-5.8,1.651-8.692.14-.735.181-.766.91-.766q7.6,0,15.2,0c.8,0,.815.019.661.827-.547,2.879-1.087,5.757-1.657,8.636-.1.508-.006.693.526.685,2-.029,3.988-.01,5.981-.012.736,0,.738,0,.881-.749q1.566-8.211,3.133-16.42l1.928-10.112C232.437,271.956,233.258,265.132,226.134,265.125Zm-24.9,6.2a10.325,10.325,0,0,1,1.114-2.12A10.325,10.325,0,0,0,201.234,271.321Zm2.53-3.725a10.97,10.97,0,0,1,1.88-1.291A11.007,11.007,0,0,0,203.763,267.6Zm21.278,4.611q-.968,5.086-1.942,10.173c-.145.757-.15.761-.888.761q-3.828,0-7.657,0c-2.571,0-5.14-.012-7.715.012-.512,0-.652-.156-.55-.675.585-2.974,1.139-5.948,1.714-8.923a2.619,2.619,0,0,1,2.22-2.07,5.828,5.828,0,0,1,.676-.035q6.763,0,13.527,0C225.169,271.45,225.182,271.467,225.042,272.207Z" transform="translate(-160.29 -252.503)" fill="#4a3610"/>
      <path id="Path_3" data-name="Path 3" d="M374.822,265.182c-.323,0-10.837-.038-15.816-.035a9.369,9.369,0,0,0-4.321.991,8.987,8.987,0,0,0-5.1,6.329c-1.744,8.806-3.382,17.613-5.075,26.418-.095.493.007.66.505.654q3.051-.036,6.09,0c.532.007.689-.187.782-.69.529-2.878,1.088-5.757,1.639-8.636.154-.8.181-.822.979-.822H369.65c.8,0,.815.02.661.828-.547,2.878-1.087,5.757-1.657,8.635-.1.509,0,.694.526.686,2-.029,3.988-.011,5.981-.013.736,0,.738,0,.881-.75q1.566-8.21,3.133-16.419.966-5.059,1.93-10.117C381.178,271.6,381.736,265.183,374.822,265.182Zm-1.087,7.087q-.958,5.029-1.919,10.059c-.159.831-.163.832-1,.832-.221,0-13.832.012-15.261.012-.413,0-.579-.105-.591-.382a1.434,1.434,0,0,1,.035-.336c.583-2.956,1.133-5.911,1.705-8.866a2.61,2.61,0,0,1,2.264-2.09,5.619,5.619,0,0,1,.619-.03q6.764,0,13.527,0C373.883,271.468,373.887,271.476,373.736,272.269Z" transform="translate(-237.612 -252.522)" fill="#4a3610"/>
      <path id="Path_4" data-name="Path 4" d="M306.326,265.141q-10.536,0-21.072,0a9.259,9.259,0,0,0-5.976,2,8.377,8.377,0,0,0-3.285,4.8c-.438,2.082-.788,4.168-1.213,6.25a5.483,5.483,0,0,0,.792,4.217,6.051,6.051,0,0,0,5.444,2.788c4.7,0,9.385.031,14.089-.015,1.575-.016,2.184,1.07,2,2.466a25.437,25.437,0,0,1-.619,3.18,4.537,4.537,0,0,1-.822,1.569,2.69,2.69,0,0,1-2.34.878q-10.146,0-20.291,0c-.845,0-.744.026-.974,1.16-.263,1.286-.521,2.577-.741,3.872-.206,1.215-.359,1.22.55,1.22H283.49c3.671,0,7.342-.009,11.011,0a8.54,8.54,0,0,0,4.407-1.2,9.645,9.645,0,0,0,4.722-6.7c.334-1.609.656-3.221.916-4.83a7.035,7.035,0,0,0-.626-4.954,5.645,5.645,0,0,0-3.943-2.755,16.553,16.553,0,0,0-2.755-.159c-3.625-.013-9.3-.005-13.451-.01a1.451,1.451,0,0,1-1.431-1.682c.2-1.357.494-2.718.762-4.079a2.179,2.179,0,0,1,2.126-1.7l19.973,0c.717,0,.779-.049.918-.769q.458-2.358.9-4.716A.682.682,0,0,0,306.326,265.141Z" transform="translate(-199.485 -252.518)" fill="#4a3610"/>
      <path id="Path_5" data-name="Path 5" d="M502.7,270.613q.441-2.3.877-4.6c.167-.876.165-.88-.7-.881H488.128c-4.936,0-9.874.01-14.806-.012-.558,0-.784.157-.883.729q-.433,2.471-.943,4.943c-.117.566.038.738.6.733,3.413-.025,6.82-.013,10.227-.012.9,0,.9,0,.722.92q-2.5,13.1-5,26.192c-.169.891-.168.894.687.894h5.644c.787,0,.789,0,.946-.822l5.019-26.306c.167-.872.17-.877,1.043-.877h10.282C502.53,271.506,502.532,271.5,502.7,270.613Z" transform="translate(-303.639 -252.506)" fill="#4a3610"/>
      <path id="Path_6" data-name="Path 6" d="M448.585,293.182q-9.945,0-19.892,0c-.879,0-.908-.038-.739-.924,1.445-7.575,4.786-25.072,5.007-26.247.161-.855.147-.869-.663-.869h-5.588c-.972,0-.974,0-1.167,1.018q-1.546,8.1-3.089,16.191-1.571,8.237-3.154,16.476c-.107.554.038.709.565.709q13.945-.017,27.883,0c.441,0,.61-.151.689-.592.288-1.609.608-3.22.913-4.829C449.526,293.183,449.525,293.182,448.585,293.182Z" transform="translate(-276.499 -252.518)" fill="#4a3610"/>
      <path id="Path_7" data-name="Path 7" d="M542.073,272.055a.648.648,0,0,1,.723-.614l.559,0h18.836c.678,0,.856-.072,1-.833l.746-3.848,10.226,18.366,5.4-5.5-8.094-14.536H558.809l.007,0c-7.247.006-14.776.022-21.836.022-.967,0-.969,0-1.154.965q-1.551,8.126-3.1,16.252c-1.044,5.474-2.08,10.949-3.145,16.423-.11.566.006.754.571.754q10.2-.015,20.388,0l0,.01h9.471l12.385-12.592-3.061-5.494-11.639,11.833c-5.65-.006-13.8-.018-18.761-.02-.818,0-.88-.082-.722-.911q.588-3.1,1.181-6.193c.185-.971.185-.972,1.136-.972H555.9c.762,0,.766,0,.919-.8q.442-2.3.879-4.6c.159-.842.138-.872-.675-.872-1.683,0-12.664-.008-15.648-.008-.4,0-.563-.207-.478-.642Q541.5,275.153,542.073,272.055Z" transform="translate(-333.841 -252.492)" fill="#4a3610"/>
      <path id="Path_8" data-name="Path 8" d="M222.087,265.173a9.464,9.464,0,0,0-2.667.495A11.149,11.149,0,0,1,222.087,265.173Z" transform="translate(-172.584 -252.535)" fill="#4a3610"/>
      <path id="Path_9" data-name="Path 9" d="M659.078,238.846h-8.462l-19.492,19.878,3.04,5.454Z" transform="translate(-386.661 -238.846)" fill="#4a3610"/>
      <path id="Path_10" data-name="Path 10" d="M629.644,313.686l8.512,15.093h8.464l-11.575-20.594Z" transform="translate(-385.891 -274.901)" fill="#4a3610"/>
    </g>
    <g id="Group_2" data-name="Group 2" transform="translate(192.595 227.652)">
      <path id="Path_11" data-name="Path 11" d="M688.948,270.779v-.045a.942.942,0,0,0,.756-.868.918.918,0,0,0-.378-.778,1.948,1.948,0,0,0-1.247-.289,9.868,9.868,0,0,0-1.4.111v3.649h.845v-1.446h.4c.467,0,.69.178.756.555a2.886,2.886,0,0,0,.289.891h.89a3.25,3.25,0,0,1-.268-.891C689.482,271.179,689.3,270.89,688.948,270.779Zm-1-.267h-.4v-1.045a2,2,0,0,1,.467-.045c.533,0,.779.223.779.556C688.792,270.356,688.413,270.512,687.947,270.512Z" transform="translate(-486.295 -249.048)" fill="#e03006"/>
      <path id="Path_12" data-name="Path 12" d="M685.594,265.091a3.66,3.66,0,1,0,3.715,3.649A3.682,3.682,0,0,0,685.594,265.091Zm0,6.563a2.917,2.917,0,1,1,2.78-2.892A2.794,2.794,0,0,1,685.594,271.654Z" transform="translate(-483.764 -247.12)" fill="#e03006"/>
      <path id="Path_13" data-name="Path 13" d="M269.7,344.435l-.473,1.767h2.742l-2.216,8.269h2.008l2.216-8.269h2.785l.473-1.767Z" transform="translate(-269.231 -288.377)" fill="#e03006"/>
      <path id="Path_14" data-name="Path 14" d="M291.148,347.061a3.841,3.841,0,0,0-2.512.933h-.014l1.159-4.325H287.93l-2.788,10.4h1.852l.936-3.493a2.179,2.179,0,0,1,2.111-1.866c.876,0,1.229.424.892,1.682l-.985,3.676H291.8l1.109-4.143C293.477,347.811,292.618,347.061,291.148,347.061Z" transform="translate(-277.504 -287.978)" fill="#e03006"/>
      <path id="Path_15" data-name="Path 15" d="M309.949,350.737a4.686,4.686,0,0,0-4.457,3.547c-.579,2.163.537,3.591,2.657,3.591a4.61,4.61,0,0,0,3.363-1.314l-.9-1.117a2.731,2.731,0,0,1-1.891.779,1.283,1.283,0,0,1-1.467-1.329H312.1c.044-.113.159-.439.22-.664C312.862,352.206,311.9,350.737,309.949,350.737Zm-2.328,2.827a2.14,2.14,0,0,1,1.881-1.216,1.061,1.061,0,0,1,1.159,1.216Z" transform="translate(-288.007 -291.654)" fill="#e03006"/>
      <path id="Path_16" data-name="Path 16" d="M337.518,345.848l-1.9.2-.6,2.247h-.818l-.414,1.541h.82l-.856,3.2c-.416,1.555.16,2.3,1.347,2.3a4,4,0,0,0,1.942-.438l-.069-1.484a2.612,2.612,0,0,1-.941.24c-.439,0-.518-.283-.356-.891l.784-2.926h1.866l.413-1.541h-1.865Z" transform="translate(-302.705 -289.111)" fill="#e03006"/>
      <path id="Path_17" data-name="Path 17" d="M351.108,347.061a3.843,3.843,0,0,0-2.512.933h-.014l1.159-4.325h-1.852l-2.787,10.4h1.852l.936-3.493A2.181,2.181,0,0,1,350,348.715c.876,0,1.229.424.892,1.682l-.985,3.676h1.852l1.109-4.143C353.437,347.811,352.577,347.061,351.108,347.061Z" transform="translate(-308.682 -287.978)" fill="#e03006"/>
      <path id="Path_18" data-name="Path 18" d="M367.943,351.839h-.028l.268-1h-1.851l-1.852,6.912h1.851l.856-3.2a2.289,2.289,0,0,1,2.238-1.809c.113,0,.3,0,.491.014l.542-2.021h-.142A3.474,3.474,0,0,0,367.943,351.839Z" transform="translate(-318.759 -291.653)" fill="#e03006"/>
      <path id="Path_19" data-name="Path 19" d="M382.4,350.737a4.685,4.685,0,0,0-4.457,3.547c-.579,2.163.537,3.591,2.657,3.591a4.608,4.608,0,0,0,3.363-1.314l-.9-1.117a2.729,2.729,0,0,1-1.89.779,1.283,1.283,0,0,1-1.467-1.329h4.849c.044-.113.159-.439.22-.664C385.309,352.206,384.346,350.737,382.4,350.737Zm-2.327,2.827a2.139,2.139,0,0,1,1.881-1.216,1.061,1.061,0,0,1,1.158,1.216Z" transform="translate(-325.678 -291.654)" fill="#e03006"/>
      <path id="Path_20" data-name="Path 20" d="M402.24,351.626l-.032.014a1.947,1.947,0,0,0-1.793-.9,4.634,4.634,0,0,0-4.21,3.577c-.571,2.135.445,3.563,2.34,3.563a3.282,3.282,0,0,0,2.335-.962l.025.014-.22.82h1.766l1.853-6.912h-1.852Zm-.639,2.7a2.478,2.478,0,0,1-2.256,1.881c-1.046,0-1.559-.778-1.264-1.881a2.464,2.464,0,0,1,2.287-1.936C401.357,352.39,401.9,353.21,401.6,354.326Z" transform="translate(-335.172 -291.653)" fill="#e03006"/>
      <path id="Path_21" data-name="Path 21" d="M422.008,347.965h-.028a2.011,2.011,0,0,0-1.85-.9,4.648,4.648,0,0,0-4.224,3.577c-.572,2.135.445,3.563,2.354,3.563a3.388,3.388,0,0,0,2.4-.975h.014l-.227.848h1.767l2.788-10.4H423.16Zm-.649,2.686a2.476,2.476,0,0,1-2.313,1.881c-1.032,0-1.559-.778-1.263-1.881a2.477,2.477,0,0,1,2.286-1.936C421.129,348.715,421.659,349.535,421.36,350.651Z" transform="translate(-345.417 -287.978)" fill="#e03006"/>
      <path id="Path_22" data-name="Path 22" d="M450.039,350.736a4.8,4.8,0,0,0-4.63,3.563c-.552,2.064.513,3.576,2.717,3.576a4.812,4.812,0,0,0,4.62-3.576C453.314,352.178,452.187,350.736,450.039,350.736Zm.827,3.563a2.51,2.51,0,0,1-2.294,1.908c-1.059,0-1.571-.834-1.283-1.908a2.481,2.481,0,0,1,2.306-1.909C450.614,352.39,451.169,353.167,450.866,354.3Z" transform="translate(-360.765 -291.653)" fill="#e03006"/>
      <path id="Path_23" data-name="Path 23" d="M466.54,345.849l-.315,1.173h-.72l-.413,1.541h.721l-1.44,5.371h1.866l1.439-5.371H469.2l.413-1.541h-1.527l.28-1.045c.178-.665.5-.934.943-.934a2.163,2.163,0,0,1,.934.312l.768-1.442a2.6,2.6,0,0,0-1.644-.509A2.881,2.881,0,0,0,466.54,345.849Z" transform="translate(-370.701 -287.84)" fill="#e03006"/>
      <path id="Path_24" data-name="Path 24" d="M488.716,352.234a1.835,1.835,0,0,1,1.456.735l1.273-1.371a3.356,3.356,0,0,0-5.337,1.187c-.36,1.344.486,1.881,1.528,2.262.812.3,1.124.453,1.043.75-.09.339-.447.565-.984.565a2.035,2.035,0,0,1-1.71-.791l-1.235,1.285a3.224,3.224,0,0,0,2.526,1.019,3.076,3.076,0,0,0,3.247-2.148c.368-1.371-.422-1.7-1.773-2.249-.611-.254-.9-.452-.821-.734A.793.793,0,0,1,488.716,352.234Z" transform="translate(-381.296 -291.653)" fill="#e03006"/>
      <path id="Path_25" data-name="Path 25" d="M505.647,345.848l-1.9.2-.6,2.247h-.819l-.413,1.541h.82l-.856,3.2c-.416,1.555.16,2.3,1.347,2.3a4,4,0,0,0,1.942-.438l-.069-1.484a2.613,2.613,0,0,1-.94.24c-.439,0-.518-.283-.355-.891l.783-2.926h1.866l.413-1.541h-1.866Z" transform="translate(-390.129 -289.111)" fill="#e03006"/>
      <path id="Path_26" data-name="Path 26" d="M518.128,350.736A4.8,4.8,0,0,0,513.5,354.3c-.553,2.064.51,3.576,2.716,3.576a4.811,4.811,0,0,0,4.62-3.576C521.4,352.178,520.276,350.736,518.128,350.736Zm.827,3.563a2.51,2.51,0,0,1-2.294,1.908c-1.059,0-1.572-.834-1.284-1.908a2.482,2.482,0,0,1,2.306-1.909C518.7,352.39,519.258,353.167,518.955,354.3Z" transform="translate(-396.17 -291.653)" fill="#e03006"/>
      <path id="Path_27" data-name="Path 27" d="M537.924,350.736a3.735,3.735,0,0,0-2.471.989h-.028l.24-.89h-1.852l-1.853,6.913h1.853l.927-3.464a2.207,2.207,0,0,1,2.062-1.894c.862,0,1.219.409.866,1.724l-.973,3.633h1.852l1.1-4.1C540.214,351.528,539.394,350.736,537.924,350.736Z" transform="translate(-405.845 -291.653)" fill="#e03006"/>
      <path id="Path_28" data-name="Path 28" d="M556.62,350.737a4.686,4.686,0,0,0-4.457,3.547c-.579,2.163.536,3.591,2.657,3.591a4.61,4.61,0,0,0,3.363-1.314l-.9-1.117a2.731,2.731,0,0,1-1.891.779,1.283,1.283,0,0,1-1.467-1.329h4.848c.045-.113.16-.439.22-.664C559.534,352.206,558.571,350.737,556.62,350.737Zm-2.327,2.827a2.139,2.139,0,0,1,1.881-1.216,1.061,1.061,0,0,1,1.159,1.216Z" transform="translate(-416.271 -291.654)" fill="#e03006"/>
      <path id="Path_29" data-name="Path 29" d="M571.394,331.078h3.819L603.746,301.7l-1.391-2.5Z" transform="translate(-426.349 -264.856)" fill="#e03006"/>
      <path id="Path_30" data-name="Path 30" d="M679.985,227.652h-3.856l-27.711,28.223,1.4,2.505Z" transform="translate(-466.4 -227.652)" fill="#e03006"/>
      <path id="Path_31" data-name="Path 31" d="M620.553,254.372,611.9,238.846h-3.856l10.05,18.031Z" transform="translate(-445.406 -233.472)" fill="#e03006"/>
      <path id="Path_32" data-name="Path 32" d="M639.587,292.726l11.07,19.86h3.856l-12.466-22.365Z" transform="translate(-461.808 -260.186)" fill="#e03006"/>
    </g>
  </g>
</svg>
