<?xml version="1.0" encoding="utf-8"?>
<!-- Generator: Adobe Illustrator 16.0.0, SVG Export Plug-In . SVG Version: 6.00 Build 0)  -->
<!DOCTYPE svg PUBLIC "-//W3C//DTD SVG 1.1//EN" "http://www.w3.org/Graphics/SVG/1.1/DTD/svg11.dtd">
<svg version="1.1" id="Laag_1" xmlns="http://www.w3.org/2000/svg" xmlns:xlink="http://www.w3.org/1999/xlink" x="0px" y="0px"
	 width="362.857px" height="222.857px" viewBox="0 0 362.857 222.857" enable-background="new 0 0 362.857 222.857"
	 xml:space="preserve">
<g>
	<path fill="#F2F5F4" d="M349.824,115.747c-0.389-0.007-0.588,0.289-0.821,0.521c-2.849,2.845-5.696,5.69-8.54,8.541
		c-0.622,0.623-0.608,0.699-0.146,1.455c1.638,2.681,3.286,5.355,4.833,8.092c0.674,1.191,1.432,2.336,2.153,3.501
		c0.105,0.171,0.231,0.329,0.328,0.503c0.165,0.298,0.144,0.52-0.267,0.535c-0.134,0.006-0.269,0.005-0.402,0.005
		c-3.456,0-6.911-0.013-10.367,0.011c-0.613,0.005-0.942-0.204-1.259-0.744c-1.422-2.421-2.953-4.777-4.354-7.209
		c-0.901-1.564-1.917-3.062-2.747-4.666c-0.337-0.652-0.76-0.905-1.502-0.896c-3.087,0.037-6.174,0.016-9.26,0.016
		c-0.201,0-0.404-0.016-0.604,0.002c-0.55,0.047-0.697-0.244-0.676-0.733c0.021-0.469,0.004-0.938,0.004-1.409
		c0-2.146-0.002-4.294,0.001-6.441c0.002-1.078,0.006-1.082,1.124-1.082c5.804-0.002,11.607-0.013,17.412,0.014
		c0.759,0.004,1.333-0.168,1.854-0.75c0.759-0.849,1.582-1.644,2.415-2.422c0.434-0.404,0.563-0.849,0.562-1.424
		c-0.018-4.562-0.009-9.125-0.011-13.688c-0.001-1.051-0.007-1.058-1.047-1.058c-6.979-0.002-13.957,0-20.936-0.002
		c-1.475-0.001-1.373,0.14-1.373-1.336c-0.002-2.382-0.002-4.764,0-7.146c0-1.177,0.002-1.181,1.125-1.182
		c8.823-0.001,17.646,0.009,26.471-0.015c0.905-0.002,1.552,0.38,2.06,1.025c0.335,0.426,0.65,0.832,1.122,1.122
		c0.246,0.151,0.449,0.407,0.608,0.657c0.493,0.77,1.41,1.122,1.869,1.926c0.047,0.083,0.243,0.08,0.37,0.117
		C349.824,99.638,349.824,107.692,349.824,115.747z"/>
	<g>
		<path fill="#E52625" d="M180.789,98.945c-0.016-0.329-0.358-0.573-0.253-0.929c0.237-0.194,0.456-0.008,0.675,0.01
			c1.164,0.096,1.761-0.489,1.666-1.666c-0.04-0.498-0.135-0.992-0.159-1.49c-0.03-0.624-0.01-0.625,0.657-0.635
			c0.132-0.002,0.263,0,0.5,0c-0.502-0.884-0.098-1.505,0.442-2.141c0.516-0.607,0.943-1.29,1.409-1.94
			c0.285,0.277,0.153,0.632,0.156,0.951c0.014,1.574,0.018,3.147,0,4.721c-0.006,0.464,0.14,0.651,0.628,0.649
			c4.352-0.023,8.704-0.028,13.057-0.038c0.219,0.635-0.024,1.149-0.516,1.503c-0.784,0.565-1.159,1.363-1.454,2.232
			c-0.667,1.967-1.343,3.932-2.011,5.899c-0.217,0.639-0.469,1.251-0.925,1.769c-0.597,0.677-0.614,1.535-0.677,2.37
			c-0.031,0.42-0.034,0.787-0.619,0.831c-0.436,0.033-0.675,0.401-0.837,0.79c-0.168,0.402-0.274,0.845-0.515,1.197
			c-0.413,0.605-0.663,1.141,0.027,1.714c0.17,0.142,0.107,0.364,0.032,0.563c-0.188,0.498-0.361,1.002-0.569,1.584
			c-0.382-0.522-0.175-1.15-0.481-1.585c-0.317,0.033-0.26,0.231-0.27,0.379c-0.056,0.874-0.334,1.593-1.106,2.132
			c-0.845,0.59-0.952,1.145-0.553,2.1c0.183,0.436,0.406,0.848,0.054,1.346c-0.513-0.088-0.835-0.632-1.326-0.684
			c-0.148,0.143-0.102,0.238-0.07,0.327c0.138,0.397,0.592,0.698,0.413,1.188c-0.272,0.748-0.409,1.563-0.979,2.176
			c-0.689,0.742-1.347,1.484-1.341,2.6c0.003,0.434-0.3,0.737-0.71,0.891c-0.219,0.082-0.447,0.152-0.677,0.19
			c-0.774,0.13-1.16,0.604-1.257,1.358c-0.025,0.199-0.062,0.398-0.109,0.593c-0.129,0.517-0.378,0.934-0.949,1.056
			c-0.271,0.057-0.473,0.127-0.545,0.473c-0.461,2.197-0.472,2.195-2.09,3.953c1.188,0.554,1.201,0.793,0.088,1.629
			c-0.509,0.383-1.016,0.769-1.523,1.153c-0.334,0.255-0.485,0.579-0.251,0.96c0.475,0.773,0.107,1.312-0.459,1.806
			c-0.434,0.378-0.811,0.683-0.59,1.428c0.152,0.516-0.423,0.93-0.89,1.212c-0.343,0.208-0.718,0.362-1.064,0.566
			c-0.686,0.402-1.148,1.035-1.113,1.803c0.088,1.949-1.032,2.854-2.676,3.389c-0.115,0.037-0.263,0.027-0.32,0.175
			c1.005,1.067,1.006,1.068,0.002,2.265c-0.195,0.232-0.372,0.469-0.455,0.771c-0.227,0.825-0.232,0.824-0.912,1.562
			c-0.306-0.092-0.508-0.371-0.771-0.555c-0.298-0.209-0.495-0.154-0.56,0.222c-0.011,0.065-0.01,0.135,0,0.2
			c0.229,1.461-0.419,2.603-1.325,3.652c-0.197,0.229-0.372,0.477-0.572,0.701c-0.754,0.846-1.258,1.806-1.456,2.932
			c-0.066,0.379-0.047,0.844-0.488,1.044c-0.687,0.312-0.954,0.92-1.13,1.577c-0.169,0.634-0.472,1.196-0.908,1.662
			c-1.51,1.608-2.593,3.49-3.582,5.44c-0.408,0.806-0.8,1.612-1.71,2.023c-0.426,0.192-0.552,0.665-0.511,1.128
			c0.065,0.719-0.212,1.32-0.63,1.859c-1.628,2.098-3.006,4.354-4.295,6.67c-0.243,0.438-0.531,0.863-0.869,1.229
			c-1.037,1.122-1.801,2.415-2.459,3.779c-0.952,1.974-2.226,3.743-3.488,5.519c-0.721,1.014-1.391,2.054-1.91,3.188
			c-0.378,0.826-0.891,1.574-1.396,2.326c-0.934,1.393-1.882,2.774-2.817,4.166c-0.497,0.739-1.014,1.461-1.665,2.077
			c-0.201,0-0.402,0-0.604,0c-0.198-0.347-0.024-0.635,0.132-0.938c0.57-1.101,1.121-2.212,1.693-3.312
			c0.457-0.877,0.69-1.814,0.775-2.791c0.083-0.945,0.243-1.851,0.859-2.633c0.197-0.25,0.255-0.612,0.363-0.928
			c0.523-1.521,1.034-3.046,1.565-4.564c0.411-1.172,0.919-2.299,1.569-3.364c0.313-0.513,0.624-1.047,0.815-1.612
			c0.763-2.256,1.849-4.385,2.593-6.646c0.444-1.35,1.081-2.593,1.954-3.719c0.404-0.523,0.86-1.039,0.415-1.795
			c-0.155-0.264,0.037-0.585,0.165-0.861c0.239-0.518,0.481-1.033,0.71-1.555c0.37-0.84,0.607-1.705,0.467-2.637
			c-0.077-0.511,0.069-0.883,0.534-1.186c0.739-0.481,1.081-1.261,1.326-2.076c0.581-1.935,1.44-3.748,2.342-5.549
			c0.55-1.097,1.308-2.021,2.125-2.913c0.147-0.161,0.416-0.376,0.109-0.565c-0.518-0.32-0.244-0.58-0.005-0.87
			c0.17-0.208,0.328-0.427,0.51-0.622c0.336-0.359,0.487-0.696,0.308-1.238c-0.256-0.777,0.054-1.5,0.821-1.842
			c0.761-0.34,1.04-0.905,1.124-1.639c0.087-0.767,0.158-1.535,0.202-2.305c0.062-1.074,0.41-2.042,1.089-2.865
			c0.437-0.527,0.679-1.062,0.488-1.749c-0.126-0.454,0.012-0.78,0.479-0.952c0.219-0.08,0.421-0.205,0.63-0.312
			c0.845-0.433,0.841-0.432,0.642-1.348c-0.104-0.478-0.043-0.945,0.204-1.363c0.406-0.687,0.571-1.431,0.559-2.213
			c-0.016-1.007,0.343-1.879,0.786-2.768c0.835-1.676,1.916-3.141,3.337-4.355c0.124-0.106,0.258-0.215,0.288-0.395
			c-0.781-0.936-0.816-1.347-0.028-2.357c0.489-0.629,0.745-1.34,0.996-2.068c0.058-0.168,0.064-0.326-0.097-0.447
			c-0.031-0.234-0.059-0.458,0.146-0.65c0.537-0.5,0.986-1.094,1.671-1.432c0.515-0.254,1.017-0.59,1.255-1.123
			c0.327-0.734,0.892-1.246,1.433-1.789c0.875-0.881,1.737-1.775,2.642-2.625c0.428-0.402,0.583-0.832,0.577-1.413
			c-0.027-2.38-0.007-4.762-0.017-7.143c-0.002-0.477,0.011-0.937,0.301-1.342c0.256-0.187,0.528-0.365,0.437-0.754
			c0.073-0.258,0.071-0.516,0.005-0.774c0.25-0.923,0.738-1.702,1.375-2.412c0.566-0.632,0.894-1.321,0.35-2.176
			c-0.229-0.361,0.112-0.818,0.594-0.908c0.279-0.052,0.52,0.097,0.78,0.141c0.08,0.024,0.199,0.094,0.231,0.065
			C180.936,99.156,180.868,99.042,180.789,98.945z"/>
		<path fill="#E52625" d="M188.205,86.543c0.266-0.541,0.538-1.079,0.794-1.624c0.257-0.547,0.53-1.069,0.975-1.505
			c0.461-0.453,0.723-1.04,0.854-1.681c0.087-0.426,0.292-0.847,0.285-1.268c-0.018-1.051,0.619-1.366,1.486-1.495
			c0.099-0.015,0.197-0.044,0.291-0.08c0.34-0.13,0.8-0.074,1.011-0.376c0.215-0.31-0.178-0.599-0.255-0.913
			c-0.124-0.502-0.065-0.969,0.345-1.28c0.484-0.368,0.662-0.814,0.593-1.393c-0.055-0.464,0.139-0.712,0.619-0.665
			c0.586,0.058,0.818-0.289,1.01-0.769c0.311-0.778,0.686-1.529,1.007-2.303c0.478-1.15,1.009-2.227,2.029-3.047
			c0.854-0.687,1.326-1.673,1.439-2.796c0.023-0.233,0.081-0.463,0.112-0.695c0.079-0.586,0.346-1.026,0.96-1.141
			c0.385-0.072,0.638-0.264,0.63-0.649c-0.027-1.394,0.808-2.367,1.589-3.375c0.966-1.247,1.892-2.526,3.111-3.55
			c0.228-0.191,0.474-0.376,0.41-0.746c-0.131-0.756,0.299-1.279,0.786-1.758c0.263-0.257,0.563-0.476,0.852-0.706
			c0.626-0.501,1.058-1.06,1.011-1.953c-0.042-0.791,0.361-1.487,0.827-2.118c0.559-0.756,1.142-1.495,1.389-2.43
			c0.1-0.379,0.369-0.543,0.747-0.535c0.543,0.013,0.677-0.289,0.656-0.772c-0.016-0.366,0.019-0.737,0.062-1.102
			c0.074-0.628,0.352-1.171,0.868-1.533c0.859-0.602,1.393-1.442,1.824-2.36c0.474-1.006,1.055-1.945,1.69-2.853
			c0.713-1.018,1.367-2.071,1.945-3.172c0.471-0.897,1.013-1.75,1.88-2.321c0.408-0.27,0.434-0.652,0.413-1.058
			c-0.022-0.466,0.077-0.75,0.642-0.776c0.518-0.024,0.905-0.271,0.728-0.92c-0.104-0.376,0.186-0.628,0.354-0.905
			c1.324-2.178,2.663-4.348,3.985-6.527c0.171-0.281,0.42-0.529,0.457-0.882c0.134,0,0.268,0,0.402,0
			c0.244,0.681,0.003,1.306-0.252,1.915c-0.686,1.639-1.397,3.266-2.087,4.902c-0.611,1.453-1.15,2.932-1.546,4.46
			c-0.633,2.443-1.615,4.753-2.631,7.055c-1.406,3.19-2.584,6.47-3.712,9.767c-0.261,0.764-0.513,1.524-0.984,2.19
			c-0.379,0.536-0.501,1.168-0.629,1.79c-0.16,0.772-0.412,1.484-1.026,2.021c-0.236,0.208-0.376,0.483-0.405,0.789
			c-0.101,1.061-0.569,1.99-1.01,2.931c-0.781,1.668-1.438,3.384-2.104,5.102c-0.676,1.743-1.584,3.399-2.271,5.147
			c-0.673,1.715-1.37,3.422-2.065,5.128c-0.18,0.441-0.337,0.874-0.2,1.361c0.137,0.491-0.014,0.851-0.508,1.049
			c-0.193,0.078-0.326,0.238-0.396,0.435c-0.511,1.405-1.373,2.693-1.337,4.28c0.015,0.679-0.179,1.352-0.683,1.845
			c-1.076,1.053-1.499,2.432-1.974,3.79c-0.236,0.323-0.587,0.267-0.916,0.267c-4.447,0.002-8.895,0.003-13.342-0.001
			C188.684,86.733,188.394,86.82,188.205,86.543z"/>
	</g>
	<path fill="#F2F5F4" d="M13.781,86.752c3.083,0,6.167,0,9.25,0c0.235,0,0.469,0.004,0.704,0.005
		c0.318,0.001,0.507,0.138,0.508,0.478c0.001,0.234,0.007,0.469,0.007,0.704c0,16.591,0,33.183,0,49.774c0,0.1,0.001,0.201,0,0.301
		c-0.019,0.869-0.019,0.882-0.918,0.883c-3.184,0.007-6.368,0.004-9.552,0.004C13.781,121.518,13.781,104.135,13.781,86.752z"/>
	<path fill="#F2F5F4" d="M240.493,123.973c0-8.619,0.008-17.237-0.011-25.855c-0.001-0.686,0.18-1.189,0.676-1.679
		c3.031-2.992,6.04-6.005,9.036-9.033c0.457-0.461,0.916-0.679,1.582-0.669c2.413,0.037,4.828,0.012,7.243,0.011
		c2.075-0.012,4.15-0.024,6.226-0.036c0.005,2.932,0.014,5.864,0.012,8.796c-0.001,0.89-0.015,0.894-0.883,0.907
		c-0.933,0.014-1.865,0.019-2.798,0.027c-1.842,0.009-3.685,0.032-5.526,0.018c-0.502-0.004-0.891,0.11-1.248,0.486
		c-0.878,0.922-1.798,1.803-2.692,2.709c-0.771,0.782-1.18,1.642-1.164,2.83c0.069,5.494,0.028,10.988,0.032,16.483
		c0.001,1.506,0.019,3.014,0.028,4.521c-0.185,0.837,0.107,1.453,0.747,2.031c1.045,0.943,2.021,1.965,2.995,2.982
		c0.381,0.396,0.786,0.545,1.331,0.54c2.583-0.022,5.167-0.01,7.75-0.01c0.201,0,0.403-0.005,0.604,0.001
		c0.791,0.022,0.797,0.029,0.825,0.776c0.004,0.101,0.001,0.201,0.001,0.302c0,2.584,0.002,5.166-0.002,7.75
		c-0.001,1.023-0.007,1.033-0.968,1.034c-4.161,0.005-8.321-0.009-12.481,0.015c-0.56,0.003-0.943-0.191-1.316-0.574
		c-1.148-1.178-2.317-2.332-3.484-3.491c-0.257-0.255-0.471-0.587-0.898-0.581c0.031-0.439-0.327-0.635-0.577-0.887
		c-1.436-1.449-2.864-2.904-4.334-4.319c-0.476-0.458-0.651-0.937-0.645-1.587C240.566,126.307,240.657,125.137,240.493,123.973z"/>
	<path fill="#F2F5F4" d="M292.642,112.716c0,4.897-0.012,9.795,0.014,14.692c0.003,0.66-0.194,1.125-0.66,1.585
		c-3.1,3.067-6.183,6.151-9.25,9.249c-0.457,0.461-0.915,0.678-1.581,0.672c-4.059-0.029-8.118-0.015-12.177-0.015
		c-0.101,0-0.201,0.003-0.302-0.001c-0.781-0.025-0.8-0.025-0.806-0.793c-0.013-1.576-0.004-3.152-0.004-4.729
		c0-1.074-0.002-2.146,0-3.221c0.003-1.115,0.005-1.12,1.085-1.121c2.683-0.003,5.367-0.026,8.05,0.016
		c0.733,0.012,1.264-0.184,1.763-0.726c0.909-0.985,1.875-1.919,2.841-2.851c0.386-0.373,0.57-0.762,0.568-1.318
		c-0.018-7.547-0.017-15.095-0.001-22.642c0.001-0.55-0.163-0.948-0.554-1.325c-1.085-1.048-2.156-2.113-3.2-3.203
		c-0.404-0.422-0.834-0.586-1.416-0.581c-2.683,0.025-5.366,0.013-8.05,0.01c-1.081-0.001-1.084-0.005-1.085-1.121
		c-0.003-2.516-0.004-5.031,0.001-7.547c0.001-0.986,0.009-0.994,1.007-0.995c4.193-0.003,8.386,0.009,12.579-0.013
		c0.588-0.003,1.001,0.188,1.408,0.598c3.047,3.072,6.104,6.135,9.182,9.177c0.447,0.442,0.602,0.896,0.599,1.509
		C292.632,102.921,292.642,107.819,292.642,112.716z"/>
	<path fill="#F2F5F4" d="M303.112,112.83c0-8.285,0-16.571-0.001-24.856c0-1.281-0.067-1.222,1.188-1.221
		c2.718,0.001,5.435,0,8.152,0c0.201,0,0.402,0.007,0.604,0.004c0.389-0.005,0.533,0.207,0.525,0.569
		c-0.006,0.235,0.001,0.47,0.001,0.705c0,16.504,0.001,33.008,0,49.512c0,1.354-0.002,1.356-1.324,1.356
		c-2.717,0.002-5.435,0.004-8.151,0c-0.983-0.002-0.992-0.01-0.992-1.012C303.111,129.536,303.112,121.182,303.112,112.83z"/>
	<path fill="#F2F5F4" d="M188.205,86.543c0.189,0.276,0.479,0.19,0.734,0.19c4.447,0.004,8.895,0.003,13.342,0.001
		c0.329,0,0.209,0.013,0.923-0.026c0.688,0.079,0.646,0.038,0.998,0.04c2.382,0.008,4.765,0.004,7.146,0.004
		c5.905,0,11.811,0.015,17.715-0.018c0.775-0.004,1.346,0.197,1.84,0.781c0.389,0.459,0.835,0.873,1.276,1.285
		c0.47,0.44,0.682,0.954,0.671,1.608c-0.026,1.644-0.003,3.288-0.011,4.932c-0.005,1.006-0.072,1.075-1.1,1.076
		c-6.341,0.003-12.683,0.002-19.023,0.002c-3.624,0-7.247,0.005-10.871-0.004c-0.76-0.002-1.518,0.188-2.278,0.026
		c-4.353,0.01-8.705,0.015-13.057,0.038c-0.488,0.002-0.634-0.185-0.628-0.649c0.018-1.574,0.014-3.147,0-4.721
		c-0.003-0.319,0.129-0.674-0.156-0.951c0.314-0.83,0.178-1.695,0.203-2.547c0.023-0.83,0.022-0.835,0.824-0.854
		C187.247,86.743,187.748,86.8,188.205,86.543z"/>
	<path fill="#F2F5F4" d="M204.051,118.966c0-6.106,0-12.213,0-18.319c0-0.235-0.007-0.47,0.001-0.705
		c0.028-0.772,0.123-0.899,0.867-0.902c2.919-0.013,5.838-0.013,8.757,0c0.705,0.003,0.804,0.129,0.842,0.825
		c0.011,0.201,0.002,0.403,0.002,0.604c0,12.38,0,24.761,0,37.142c0,0.168,0.005,0.336-0.001,0.503
		c-0.026,0.758-0.029,0.778-0.817,0.781c-2.885,0.009-5.771,0.007-8.656,0.003c-0.984-0.002-0.993-0.01-0.993-1.01
		c-0.003-5.737-0.001-11.475-0.001-17.212C204.051,120.107,204.051,119.537,204.051,118.966z"/>
	<g>
		<path fill="#E52625" d="M240.493,123.973c0.164,1.164,0.073,2.334,0.061,3.5c-0.007,0.65,0.169,1.129,0.645,1.587
			c1.47,1.415,2.898,2.87,4.334,4.319c0.25,0.252,0.608,0.447,0.577,0.887c-0.677,0.798-1.258,1.646-1.508,2.688
			c-0.13,0.541-0.469,0.961-0.915,1.287c-0.392,0.285-0.661,0.584-0.646,1.146c0.019,0.676-0.409,1.195-0.921,1.605
			c-0.331,0.264-0.584,0.539-0.58,0.992c0.003,0.281-0.167,0.507-0.29,0.742c-0.796,1.514-1.558,3.045-2.559,4.441
			c-0.31,0.433-0.545,0.926-0.766,1.412c-0.516,1.136-1.104,2.217-1.927,3.168c-0.506,0.587-0.828,1.299-1.143,2.004
			c-0.422,0.95-0.843,1.9-1.259,2.853c-1.114,2.555-2.485,4.961-3.927,7.35c-1.904,3.153-3.553,6.462-5.466,9.618
			c-2.695,4.447-5.122,9.044-7.514,13.658c-0.246,0.477-0.529,0.933-0.803,1.394c-0.092,0.154-0.236,0.266-0.412,0.159
			c-0.122-0.074-0.116-0.221-0.058-0.358c0.861-2.033,1.462-4.185,2.704-6.044c0.425-0.636,0.704-1.285,0.651-2.062
			c-0.038-0.545,0.091-1.061,0.309-1.562c0.731-1.693,1.446-3.393,2.177-5.084c0.215-0.498,0.395-0.998,0.339-1.553
			c-0.046-0.449,0.09-0.861,0.263-1.266c0.696-1.635,1.39-3.27,2.087-4.903c0.146-0.339,0.314-0.659,0.215-1.058
			c-0.161-0.644,0.1-1.12,0.674-1.415c0.409-0.212,0.645-0.435,0.383-0.935c-0.272-0.52-0.222-0.979,0.426-1.199
			c0.256-0.088,0.32-0.309,0.382-0.545c0.562-2.145,1.352-4.217,2.194-6.258c1.089-2.635,2.042-5.305,2.795-8.053
			c0.257-0.935,0.65-1.831,0.975-2.747c0.2-0.567,0.36-1.146,0.861-1.558c0.235-0.193,0.412-0.575,0.334-0.808
			c-0.208-0.612,0.216-0.829,0.542-1.132c0.271-0.252,0.546-0.497,0.808-0.756c0.302-0.299,0.4-0.65,0.391-1.09
			c-0.034-1.605,0.462-3.102,1.043-4.57c0.094-0.236,0.164-0.667,0.591-0.214c0.141,0.149,0.253-0.106,0.293-0.268
			c0.137-0.553,0.265-1.108,0.411-1.659c0.37-1.396,0.832-2.756,1.766-3.895c0.183-0.223,0.101-0.439,0.099-0.664
			c-0.003-0.494-0.133-0.989-0.052-1.461c0.394-0.193,0.773,0.121,1.118-0.092C239.867,124.309,239.867,124.309,240.493,123.973z"/>
		<path fill="#E52625" d="M251.005,123.491c-0.01-1.508-0.027-3.016-0.028-4.521c-0.004-5.495,0.037-10.99-0.032-16.483
			c-0.016-1.188,0.393-2.047,1.164-2.83c0.895-0.906,1.814-1.787,2.692-2.709c0.357-0.376,0.746-0.49,1.248-0.486
			c1.842,0.014,3.685-0.009,5.526-0.018c0.104,0.319-0.067,0.591-0.163,0.87c-2.951,8.575-6.383,16.963-9.924,25.307
			C251.36,122.925,251.248,123.245,251.005,123.491z"/>
		<path fill="#E52625" d="M265.245,86.712c-2.075,0.012-4.15,0.023-6.226,0.036c-0.059-0.485,0.271-0.816,0.494-1.176
			c1.11-1.794,2.238-3.579,3.37-5.359c0.29-0.456,0.537-0.889,0.505-1.477c-0.041-0.729,0.336-1.355,0.735-1.941
			c0.587-0.858,1.176-1.711,1.478-2.725c0.057-0.188,0.158-0.375,0.278-0.532c0.919-1.205,1.677-2.496,2.25-3.902
			c0.205-0.502,0.598-0.891,1.062-1.182c0.415-0.261,0.69-0.629,0.876-1.07c1.351-3.217,3.071-6.238,4.844-9.233
			c0.409-0.692,0.814-1.386,1.231-2.074c0.149-0.248,0.249-0.566,0.652-0.566c0.152,0.323-0.068,0.58-0.154,0.841
			c-1.692,5.086-3.742,10.04-5.594,15.067c-0.567,1.541-1.091,3.096-1.563,4.667c-0.744,2.475-1.656,4.881-2.785,7.208
			C266.158,84.408,265.656,85.542,265.245,86.712z"/>
	</g>
	<path fill="#F2F5F4" d="M41.417,86.752c4.394,0,8.788,0.014,13.182-0.014c0.697-0.005,1.191,0.206,1.669,0.704
		c1.324,1.378,2.682,2.726,4.053,4.057c0.418,0.406,0.584,0.832,0.583,1.415c-0.017,7.178-0.017,14.356,0.001,21.534
		c0.001,0.591-0.199,1-0.606,1.404c-2.906,2.881-5.793,5.78-8.687,8.674c-0.166,0.166-0.326,0.339-0.499,0.498
		c-0.289,0.268-0.309,0.545-0.135,0.9c0.252,0.515,0.599,0.966,0.893,1.451c1.881,3.119,3.753,6.244,5.623,9.369
		c0.24,0.401,0.437,0.825,0.695,1.221c0.459,0.703,0.328,0.928-0.512,0.932c-1.979,0.01-3.958,0.003-5.937,0.003
		c-1.442,0-2.885-0.023-4.327,0.011c-0.615,0.016-0.984-0.207-1.29-0.738c-1.116-1.941-2.288-3.85-3.437-5.77
		c-1.166-1.951-2.381-3.875-3.464-5.872c-0.452-0.833-0.993-1.168-1.97-1.146c-2.95,0.07-5.903,0.025-8.854,0.025
		c-0.235,0-0.47-0.014-0.704,0c-0.491,0.03-0.657-0.223-0.628-0.675c0.013-0.2,0.001-0.402,0.001-0.604
		c0-2.113,0.003-4.227-0.003-6.339c-0.001-0.433,0.02-0.86-0.104-1.295c-0.137-0.486,0.03-0.686,0.518-0.742
		c0.265-0.031,0.536-0.01,0.804-0.01c5.803-0.001,11.606-0.014,17.408,0.016c0.739,0.004,1.263-0.206,1.754-0.744
		c0.768-0.841,1.591-1.634,2.414-2.423c0.385-0.37,0.579-0.755,0.577-1.316c-0.022-4.628-0.01-9.257-0.014-13.886
		c0-0.967-0.011-0.974-1.028-0.975c-6.876-0.002-13.752-0.001-20.628-0.001c-0.269,0-0.537,0.004-0.805-0.001
		c-0.876-0.017-0.889-0.018-0.891-0.91c-0.007-2.348-0.001-4.696-0.004-7.044c0-0.301-0.001-0.604-0.035-0.903
		c-0.081-0.72-0.044-0.787,0.7-0.803c0.838-0.018,1.677-0.004,2.516-0.004C33.971,86.752,37.694,86.752,41.417,86.752z"/>
	<path fill="#F2F5F4" d="M177.051,106.072c-0.291,0.405-0.303,0.865-0.301,1.342c0.01,2.381-0.01,4.762,0.017,7.143
		c0.007,0.581-0.148,1.011-0.577,1.413c-0.905,0.85-1.766,1.744-2.642,2.625c-0.542,0.543-1.106,1.055-1.433,1.789
		c-0.238,0.533-0.74,0.869-1.255,1.123c-0.685,0.338-1.134,0.932-1.671,1.432c-0.206,0.192-0.177,0.416-0.146,0.65
		c-0.508-0.071-0.842,0.237-1.095,0.59c-0.766,1.064-1.792,1.268-3.053,1.258c-6.942-0.053-13.884-0.025-20.827-0.025
		c-1.282,0-1.228,0.07-1.227-1.182c0.002-2.482-0.002-4.964,0.002-7.445c0.001-1.031,0.008-1.037,1.067-1.037
		c5.903-0.002,11.806-0.016,17.708,0.018c0.778,0.004,1.327-0.223,1.839-0.783c0.746-0.816,1.54-1.591,2.344-2.35
		c0.418-0.395,0.613-0.811,0.61-1.403c-0.022-4.561-0.01-9.122-0.014-13.683c-0.001-1.068-0.06-1.125-1.15-1.125
		c-7.043-0.003-14.085-0.001-21.128-0.002c-1.332,0-1.277,0.108-1.277-1.232c0.002-2.481-0.002-4.963,0.002-7.445
		c0.002-0.977,0.01-0.985,1.017-0.986c8.955-0.002,17.909,0.004,26.864-0.012c0.587-0.001,1.005,0.181,1.408,0.596
		c1.285,1.324,2.582,2.636,3.916,3.909c0.484,0.462,0.635,0.951,0.631,1.598c-0.023,4.024-0.014,8.049-0.008,12.074
		C176.672,105.335,176.537,105.815,177.051,106.072z"/>
	<path fill="#F2F5F4" d="M104.697,128.081c-0.435-0.018-0.87-0.05-1.305-0.05c-6.17-0.003-12.341-0.001-18.512-0.007
		c-0.363,0-0.737,0.076-1.077-0.079c-0.095-0.136-0.066-0.261-0.02-0.391c0.583-1.638,1.171-3.272,1.745-4.913
		c0.386-1.102,0.743-2.215,1.128-3.316c0.365-1.045,0.147-0.959,1.301-0.96c5.232-0.004,10.463-0.001,15.695-0.002
		c1.502,0,1.516-0.075,0.991-1.511c-0.883-2.415-1.698-4.854-2.547-7.282c-1.445-4.131-2.906-8.257-4.329-12.396
		c-0.199-0.579-0.484-0.846-1.085-0.758c-0.033,0.005-0.067,0.004-0.101,0c-0.581-0.076-1.371,0.293-1.693-0.198
		c-0.261-0.398,0.221-1.054,0.405-1.584c0.832-2.397,1.686-4.787,2.499-7.191c0.18-0.532,0.446-0.716,1.013-0.705
		c1.844,0.038,3.689,0.036,5.533,0.001c0.606-0.011,0.886,0.2,1.082,0.776c1.177,3.479,2.384,6.947,3.599,10.412
		c1.183,3.375,2.389,6.742,3.578,10.115c0.167,0.472,0.334,0.95,0.432,1.438c0.078,0.39,0.249,0.606,0.644,0.637
		c-0.317,0.286-0.171,0.594-0.059,0.915c1.147,3.266,2.29,6.534,3.431,9.801c0.077,0.22,0.111,0.465,0.408,0.5
		c-0.057,0.726,0.217,1.382,0.447,2.041c0.899,2.582,1.813,5.158,2.721,7.736c0.787,2.233,1.572,4.468,2.355,6.703
		c0.108,0.309,0.269,0.607,0.226,0.954c-0.311,0.226-0.656,0.125-0.979,0.126c-2.881,0.008-5.763,0.006-8.645,0.005
		c-1.23-0.001-1.306-0.04-1.719-1.229c-0.428-1.231-0.813-2.477-1.24-3.708c-0.149-0.431-0.245-0.919-0.747-1.126
		c0.07-0.219,0.179-0.425,0.091-0.674c-0.435-1.223-0.87-2.447-1.283-3.678c-0.121-0.359-0.354-0.428-0.686-0.424
		C106.896,128.076,105.796,128.075,104.697,128.081z"/>
	<path fill="#F2F5F4" d="M71.547,138.9c-1.509,0-3.018,0.006-4.527-0.002c-0.948-0.005-0.987-0.05-0.667-0.977
		c0.95-2.749,1.913-5.493,2.879-8.235c1.143-3.244,2.302-6.483,3.441-9.729c1.171-3.336,2.321-6.68,3.491-10.017
		c1.513-4.319,2.975-8.655,4.558-12.95c0.959-2.601,1.807-5.242,2.709-7.863c0.207-0.6,0.447-1.189,0.646-1.792
		c0.151-0.458,0.445-0.594,0.911-0.592c3.119,0.015,6.237,0.003,9.356,0.011c0.806,0.002,0.858,0.075,0.578,0.887
		c-1.057,3.065-2.132,6.124-3.198,9.187c-1.495,4.293-2.984,8.588-4.481,12.881c-0.925,2.651-1.854,5.3-2.792,7.946
		c-1.049,2.962-2.174,5.898-3.146,8.885c-0.826,2.539-1.817,5.02-2.618,7.568c-0.43,1.367-0.972,2.701-1.4,4.069
		c-0.174,0.556-0.458,0.737-1.011,0.729C74.7,138.884,73.124,138.9,71.547,138.9z"/>
	<path fill="#F2F5F4" d="M129.973,100.255c-0.035-0.655-0.084-1.083-0.087-1.668c-0.016-3.45-0.007-6.9-0.007-10.35
		c0-0.201-0.001-0.402,0.001-0.603c0.013-0.885,0.014-0.893,0.869-0.897c1.541-0.006,3.082-0.009,4.622,0.002
		c0.422,0.003,0.17,0.061,0.916-0.014c0.581,0.029,0.443,0.032,0.808,0.028c0.805-0.009,1.611,0.015,2.416-0.007
		c0.504-0.014,0.76,0.162,0.716,0.693c-0.017,0.2-0.001,0.403-0.001,0.604c0,16.506,0,33.012,0,49.518
		c0,1.476,0.104,1.335-1.372,1.337c-2.617,0.004-5.234,0.004-7.851,0c-1.039-0.002-1.045-0.008-1.045-1.06
		c-0.002-11.943-0.001-23.887-0.001-35.831C129.955,101.376,129.938,100.978,129.973,100.255z"/>
	<g>
		<path fill="#E52625" d="M117.453,121.334c-0.297-0.035-0.332-0.28-0.408-0.5c-1.141-3.268-2.284-6.535-3.431-9.801
			c-0.113-0.321-0.258-0.629,0.059-0.915c0.099-0.058,0.132-0.151,0.098-0.25c-0.324-0.944,0.061-1.699,0.637-2.403
			c0.488-0.596,1.006-1.166,1.354-1.867c0.359-0.724,0.683-1.445,0.754-2.271c0.076-0.876,0.559-1.567,1.18-2.16
			c0.503-0.48,1.023-0.942,1.507-1.385c-0.07-0.383-0.453-0.366-0.583-0.701c0.816-0.989,1.579-2.084,2.302-3.207
			c0.656-1.017,1.243-2.064,1.649-3.211c0.235-0.664,0.535-1.303,0.951-1.878c0.32-0.443,0.457-0.966,0.635-1.471
			c0.223-0.629,0.571-1.15,1.251-1.337c0.407-0.111,0.607-0.401,0.75-0.749c1.335-3.249,3.406-6.072,5.226-9.04
			c0.736-1.2,1.485-2.393,2.229-3.587c0.301-0.484,0.581-0.984,1.131-1.247c0.183-0.087,0.386-0.231,0.281-0.462
			c-0.283-0.619,0.166-0.839,0.558-1.089c0.469-0.298,0.793-0.648,0.901-1.248c0.164-0.913,0.715-1.652,1.332-2.328
			c0.772-0.846,1.439-1.741,1.864-2.833c0.477-1.225,1.347-2.233,2.058-3.329c2.462-3.797,4.974-7.56,7.665-11.201
			c1.014-2.24,2.704-4.07,3.788-6.272c0.566-1.149,1.328-2.178,2.344-2.984c0.455-0.36,0.625-0.861,0.758-1.381
			c0.125-0.487,0.226-0.981,0.44-1.438c0.08-0.171,0.147-0.413,0.416-0.315c0.198,0.072,0.308,0.258,0.348,0.462
			c0.048,0.25-0.113,0.448-0.212,0.655c-0.708,1.482-1.415,2.964-2.136,4.439c-1.443,2.953-2.745,5.964-3.917,9.035
			c-0.562,1.47-1.187,2.92-1.863,4.34c-2.826,5.93-5.433,11.959-8.306,17.868c-1.668,3.432-3.05,7.002-4.557,10.512
			c-0.065,0.152-0.092,0.319-0.137,0.479c-0.194,0.449-0.573,0.478-0.996,0.474c-1.541-0.012-3.081-0.009-4.622-0.002
			c-0.855,0.004-0.856,0.012-0.869,0.897c-0.003,0.201-0.001,0.402-0.001,0.603c0,3.45-0.009,6.9,0.007,10.35
			c0.003,0.585-0.064,1.13-0.373,1.632c-0.799,1.158-1.448,2.386-1.823,3.752c-0.224,0.812-0.59,1.553-1.139,2.209
			c-1.274,1.52-2.39,3.139-2.974,5.065c-0.104,0.342-0.317,0.592-0.615,0.759c-0.534,0.299-0.791,0.777-0.986,1.331
			c-0.558,1.582-1.388,3.035-2.195,4.498c-0.095,0.173-0.202,0.383-0.361,0.471C118.223,118.971,117.908,120.197,117.453,121.334z"
			/>
		<path fill="#E52625" d="M104.697,128.081c1.099-0.006,2.199-0.005,3.298-0.02c0.331-0.004,0.564,0.064,0.686,0.424
			c0.413,1.23,0.848,2.455,1.283,3.678c0.088,0.249-0.021,0.455-0.091,0.674c-1.037,1.443-2.014,2.93-2.894,4.471
			c-3.162,5.535-6.629,10.873-10.312,16.072c-2.386,3.369-4.41,6.965-6.612,10.448c-0.555,0.878-1.126,1.747-1.69,2.619
			c-0.109,0.169-0.201,0.356-0.338,0.497c-0.222,0.229-0.455,0.61-0.818,0.396c-0.448-0.265-0.058-0.603,0.076-0.86
			c1.786-3.457,3.25-7.059,4.811-10.617c0.188-0.429,0.342-0.885,0.6-1.27c1.53-2.279,2.369-4.871,3.369-7.387
			c0.757-1.906,1.721-3.705,2.687-5.506c0.228-0.424,0.448-0.82,0.116-1.295c-0.178-0.254-0.042-0.456,0.211-0.553
			c0.522-0.201,0.68-0.605,0.678-1.116c-0.002-0.434,0.173-0.767,0.525-1.028c0.426-0.316,0.614-0.773,0.711-1.286
			c0.113-0.592,0.23-1.187,0.405-1.761c0.196-0.645,0.474-1.273,1.018-1.703c0.633-0.5,1.003-1.159,1.285-1.885
			c0.232-0.598,0.477-1.188,0.997-1.602c0.22-0.174,0.256-0.354,0.142-0.607C104.727,128.62,104.665,128.356,104.697,128.081z"/>
	</g>
</g>
</svg>
